# xmcd CD database file
#
# Track frame offsets:
#	150
#	19272
#	37379
#	56708
#	70591
#	89084
#	111109
#	141635
#
# Disc length: 2245 seconds
#
# Revision: 0
# Processed by: cddbd v1.5.1PL2 Copyright (c) Steve Scherf et al.
# Submitted via: CDex 1.51
#
DISCID=7c08c308
DTITLE=Ben Rice and the Youth of Blues - EP
DYEAR=2006
DGENRE=Blues
TTITLE0=Do Me Wrong
TTITLE1=Hang up the Phone
TTITLE2=No More
TTITLE3=Love me Baby
TTITLE4=Livin' the Life
TTITLE5=I Saw the Devil
TTITLE6=Mean Lady
TTITLE7=Don't Push Me Away
EXTD=YEAR: 2006
EXTT0=
EXTT1=
EXTT2=
EXTT3=
EXTT4=
EXTT5=
EXTT6=
EXTT7=
PLAYORDER=
